<svg width="75" height="48" viewBox="0 0 75 48" fill="none" xmlns="http://www.w3.org/2000/svg">
<g clip-path="url(#clip0_6425_3969)">
<path d="M39.2108 1.55385C40.4691 1.46543 41.7971 1.51275 43.053 1.62461C43.5569 1.66951 45.5919 1.85814 45.8727 2.20836C45.8957 2.23747 45.8971 2.27968 45.8891 2.31534C45.7673 2.86852 42.2012 6.15881 41.5583 6.55048C40.37 6.41327 39.1889 6.19414 37.9473 6.05697C30.336 5.21588 22.0801 6.84748 16.032 11.7566C15.1423 12.492 14.3286 13.3143 13.603 14.2112C13.3847 14.4822 12.7669 15.4147 12.5933 15.5608L12.5394 15.5441C12.5266 15.5177 12.514 15.4936 12.5106 15.4639C12.4607 15.0308 14.7608 12.3547 15.1808 11.897C21.1508 5.39105 30.5046 1.94059 39.2108 1.55385Z" fill="white"/>
<path d="M62.0454 32.2695C62.083 32.2889 62.11 32.3166 62.1424 32.3446C62.2069 32.5379 62.06 32.7316 61.9539 32.8869C58.7754 37.5425 54.1893 41.0037 49.0071 43.2077C43.7593 45.4393 37.7599 46.6129 32.0393 46.2715C31.1454 46.218 29.601 46.0395 28.793 45.7185C28.7746 45.6774 28.7589 45.5709 28.7731 45.5476C29.3488 44.6078 32.351 41.7912 33.1087 41.3142C33.4906 41.3444 34.1292 41.4625 34.5214 41.5222C35.2395 41.6334 35.9603 41.7261 36.6832 41.8003C40.5669 42.2017 44.1753 42.065 47.984 41.1746C53.2876 39.9348 59.1017 37.0161 62.0454 32.2695Z" fill="white"/>
<path d="M71.7983 18.7614C72.4495 18.7173 73.492 18.7497 74.1655 18.7499L74.1633 29.2109C73.4289 29.2136 72.6519 29.2281 71.9215 29.2025C71.951 27.5026 71.9237 25.7063 71.9244 23.9993C71.9193 23.5345 71.9292 22.7636 71.9977 22.32C71.8114 22.5562 71.3541 23.4089 71.1547 23.7398L69.1838 26.968C69.0369 27.2082 68.6106 27.9481 68.4257 28.1022C68.2671 27.9699 67.4653 26.6225 67.3132 26.3691C66.5096 25.0294 65.629 23.6957 64.9019 22.3154C64.9825 24.5288 64.9544 26.9836 64.9343 29.2104C64.2135 29.2135 63.4495 29.228 62.7327 29.2024C62.7425 26.3771 62.7228 21.8135 62.7392 18.8231C62.7556 18.8026 62.7721 18.7822 62.7885 18.7618L62.9584 18.7509C63.6833 18.7493 64.4888 18.7319 65.2067 18.7654C65.5732 19.3137 66.0144 20.115 66.3568 20.695L68.5078 24.3304C69.5047 22.5625 70.7401 20.4952 71.7983 18.7614Z" fill="white"/>
<path d="M21.0995 18.7587C21.7849 18.724 22.5367 18.7714 23.2395 18.7422C23.4306 19.0258 23.3621 20.0062 23.3594 20.3756L23.356 22.3376L23.3551 29.0739C23.1117 29.111 21.445 29.1777 21.3407 29.0374C21.2336 28.8934 21.2728 27.5934 21.2732 27.2977L21.2769 24.3393C21.2771 23.9528 21.2967 23.2289 21.2531 22.8665C21.2421 22.7633 21.2684 22.4437 21.2755 22.3246C21.0176 22.7234 20.7446 23.2491 20.4925 23.6709L18.718 26.5795C18.4656 26.9918 17.9999 27.8035 17.7218 28.1512C17.414 27.7385 16.9064 26.8549 16.6172 26.3825L14.1797 22.3233C14.2619 23.0907 14.2334 24.2693 14.2341 25.0672C14.2392 26.4485 14.2362 27.8298 14.2251 29.2111C13.4955 29.2188 12.7659 29.2168 12.0364 29.2051C12.0128 28.0574 12.0344 26.8264 12.0342 25.6731L12.0358 18.7567C12.796 18.7364 13.7471 18.7384 14.5023 18.7619C14.8682 19.333 15.2409 19.997 15.588 20.5848L17.8063 24.3274C18.576 22.9711 19.406 21.6384 20.1864 20.2872C20.4815 19.7763 20.7872 19.2589 21.0995 18.7587Z" fill="white"/>
<path d="M53.8803 18.7152L56.2832 18.7148C57.5394 18.713 59.496 18.5654 60.4485 19.4861C61.0636 20.0809 61.1194 20.947 61.1212 21.7425L58.8003 21.7435C58.7033 21.1678 58.5148 20.7886 57.8464 20.7708C56.6118 20.7378 55.36 20.747 54.1257 20.7647C53.0453 20.7802 52.7995 21.2269 52.7605 22.2341C52.7444 22.9013 52.7131 23.4576 52.7357 24.1393C52.7751 24.9506 52.6103 26.1451 53.0511 26.8541C53.3187 27.2844 54.7386 27.2188 55.182 27.2209L57.2845 27.2236C59.0176 27.2136 58.9039 26.7868 58.8882 25.2909C58.502 25.2813 55.9102 25.3356 55.791 25.2375L55.7924 23.4838C57.4854 23.4367 59.4198 23.4738 61.1256 23.483C61.1278 24.5042 61.1358 25.52 61.1205 26.5701C61.0727 29.9093 57.6422 29.1516 55.3917 29.2444C52.8283 29.3502 50.5132 29.2046 50.4903 25.9427C50.4793 25.2973 50.4815 24.6412 50.4815 23.9967C50.4819 21.0437 50.1978 18.915 53.8803 18.7152Z" fill="white"/>
<path d="M28.4786 18.7499C29.4847 18.7427 30.4908 18.7457 31.4968 18.7589C32.0137 19.9138 32.5256 21.2354 33.0116 22.4133L35.8089 29.2041C35.0124 29.2206 34.0249 29.2324 33.2366 29.2038C33.0497 28.6489 32.7848 28.0043 32.5729 27.4499C32.1675 27.4354 31.7121 27.4447 31.303 27.444L27.1727 27.4475C26.9387 28.0338 26.7093 28.6219 26.4845 29.2117C25.6589 29.2154 24.8333 29.2123 24.0078 29.2025C24.2027 28.6995 24.4175 28.1951 24.625 27.6956C25.8565 24.7322 27.0527 21.7503 28.3086 18.7988C28.3269 18.7559 28.4369 18.755 28.4786 18.7499ZM27.9497 25.423L29.9174 25.422L31.7804 25.424C31.5719 24.8625 29.9825 20.5793 29.8402 20.493L27.9497 25.423Z" fill="white"/>
<path d="M42.4306 18.7124L44.6811 18.711C47.2092 18.7106 49.3182 18.5265 49.3321 21.7405L46.9743 21.7356C46.9645 21.5817 46.9623 21.4404 46.9061 21.2954C46.8339 21.1056 46.6877 20.953 46.5007 20.8724C46.0438 20.6714 42.4328 20.6853 41.9361 20.889C41.7188 20.9782 41.5361 21.1571 41.449 21.3752C41.1959 22.0088 41.2492 25.2189 41.3363 26.0023C41.3615 26.2291 41.4063 26.4552 41.4971 26.6656C41.5861 26.8717 41.7458 27.0003 41.9526 27.0798C42.4973 27.2892 45.3276 27.2666 45.9942 27.1907C46.2144 27.1656 46.4055 27.1217 46.6082 27.0315C46.9462 26.7836 46.9532 26.5534 46.9762 26.1719C47.7025 26.147 48.6101 26.1612 49.3353 26.1749C49.3288 29.594 47.0323 29.195 44.4222 29.2424C43.8257 29.2469 43.1828 29.2367 42.591 29.2403C38.8568 29.2628 38.9841 26.8153 39.0315 23.9887C39.0807 21.0587 38.6745 18.9218 42.4306 18.7124Z" fill="white"/>
<path d="M3.8909 18.7152L6.15412 18.7148C8.63981 18.7149 10.818 18.5309 10.7924 21.7441L8.45527 21.7419C8.44057 21.6181 8.41549 21.4213 8.37428 21.3069C8.30653 21.1187 8.16571 20.9655 7.98347 20.8819C7.5067 20.6658 3.91249 20.6868 3.38562 20.8966C3.16832 20.9831 3.00905 21.1573 2.92195 21.3716C2.69692 21.9254 2.72164 25.2747 2.79657 25.968C2.82269 26.2097 2.86985 26.4525 2.96864 26.676C3.06245 26.8883 3.2187 27.0011 3.43254 27.0822C3.97087 27.2863 6.8485 27.27 7.48756 27.1914C7.7121 27.1638 7.90288 27.1109 8.10992 27.0203C8.41191 26.7662 8.41126 26.543 8.46504 26.1732C9.23016 26.1586 10.027 26.1678 10.7942 26.1675C10.84 29.6405 8.37961 29.2004 5.8094 29.2453C3.36499 29.288 0.658424 29.4989 0.524089 26.2146C0.500967 25.4797 0.511305 24.7258 0.509649 23.9921C0.502962 21.0307 0.215279 18.9241 3.8909 18.7152Z" fill="white"/>
<path d="M23.2408 18.7422L23.4111 18.7617C23.4263 18.7822 23.4416 18.8026 23.4568 18.8231C23.428 21.7058 23.5217 26.5383 23.4558 29.2106C22.7351 29.2142 21.9423 29.2303 21.2245 29.2076L21.2219 25.1262C21.2218 24.5076 21.1924 23.4632 21.2544 22.8665C21.298 23.2289 21.2784 23.9528 21.2782 24.3393L21.2745 27.2977C21.2741 27.5934 21.2349 28.8934 21.342 29.0374C21.4463 29.1777 23.113 29.111 23.3564 29.0739L23.3573 22.3376L23.3607 20.3756C23.3634 20.0062 23.4319 19.0258 23.2408 18.7422Z" fill="white"/>
</g>
<defs>
<clipPath id="clip0_6425_3969">
<rect width="74.6775" height="46.09" fill="white" transform="translate(0 0.955078)"/>
</clipPath>
</defs>
</svg>
